<?xml version="1.0" encoding="utf-8"?>
<!-- Generator: Adobe Illustrator 16.0.0, SVG Export Plug-In . SVG Version: 6.00 Build 0)  -->
<!DOCTYPE svg PUBLIC "-//W3C//DTD SVG 1.1//EN" "http://www.w3.org/Graphics/SVG/1.1/DTD/svg11.dtd">
<svg version="1.1" id="Layer_1" xmlns="http://www.w3.org/2000/svg" xmlns:xlink="http://www.w3.org/1999/xlink" x="0px" y="0px"
	 width="291.917px" height="73.794px" viewBox="0 0 291.917 73.794" enable-background="new 0 0 291.917 73.794"
	 xml:space="preserve">
<g>
	<path fill="#21409A" d="M149.93,34.419c-1.762,1.647-4.12,2.665-6.715,2.665c-5.433,0-9.852-4.42-9.852-9.851
		c0-5.432,4.419-9.85,9.852-9.85c2.595,0,4.953,1.017,6.715,2.665c0.704-2.8,1.809-5.438,3.251-7.853
		c-2.856-1.897-6.281-3.003-9.966-3.003c-9.965,0-18.042,8.077-18.042,18.042s8.077,18.042,18.042,18.042
		c3.685,0,7.109-1.106,9.966-3.004C151.739,39.858,150.634,37.218,149.93,34.419"/>
	<polygon fill="#ED1C24" points="33.841,10.128 24.136,10.128 17.857,19.769 11.578,10.128 1.873,10.128 13,27.226 1.873,44.307 
		11.595,44.307 17.857,34.687 24.119,44.307 33.841,44.307 22.714,27.226 	"/>
	<polygon fill="#ED1C24" points="50.025,17.653 50.025,44.308 41.14,44.308 41.14,17.653 33.841,17.653 33.841,10.128 
		57.322,10.128 57.322,17.653 	"/>
	<path fill="#ED1C24" d="M89.452,44.308H78.391l-8.477-13.146v13.146h-8.885v-34.18h13.826c1.904,0,3.566,0.28,4.987,0.838
		c1.421,0.56,2.591,1.323,3.513,2.29c0.921,0.969,1.617,2.086,2.085,3.356c0.467,1.269,0.703,2.628,0.703,4.08
		c0,2.599-0.628,4.707-1.881,6.323c-1.255,1.616-3.105,2.712-5.554,3.286L89.452,44.308z M69.914,25.405h1.676
		c1.753,0,3.098-0.363,4.036-1.088c0.936-0.726,1.404-1.768,1.404-3.128c0-1.36-0.469-2.403-1.404-3.128
		c-0.938-0.726-2.283-1.088-4.036-1.088h-1.676V25.405z"/>
	<polygon fill="#21409A" points="258.011,17.653 248.038,17.653 248.038,23.456 258.011,23.456 258.011,30.981 248.038,30.981 
		248.038,36.784 258.011,36.784 258.011,44.308 239.153,44.308 239.153,10.128 258.011,10.128 	"/>
	<path fill="#21409A" d="M290.14,44.308h-11.062l-8.478-13.146v13.146h-8.885v-34.18h13.827c1.902,0,3.564,0.28,4.985,0.838
		c1.42,0.56,2.592,1.323,3.514,2.29c0.921,0.969,1.617,2.086,2.085,3.356c0.468,1.269,0.702,2.628,0.702,4.08
		c0,2.599-0.628,4.707-1.881,6.323c-1.254,1.616-3.104,2.712-5.553,3.286L290.14,44.308z M270.601,25.405h1.679
		c1.752,0,3.096-0.363,4.034-1.088c0.937-0.726,1.404-1.768,1.404-3.128c0-1.36-0.468-2.403-1.404-3.128
		c-0.938-0.726-2.282-1.088-4.034-1.088h-1.679V25.405z"/>
	<polygon fill="#21409A" points="212.953,10.128 221.203,30.935 229.498,10.128 239.153,10.128 224.739,44.307 217.666,44.307 
		203.297,10.128 	"/>
	<path fill="#3E484F" d="M5.527,64.787l-1.58,3.049H1.855l7.174-13.893l4.477,13.893h-2.008l-0.94-3.049H5.527z M6.358,63.124h3.663
		l-1.395-4.612L6.358,63.124z"/>
	<polygon fill="#3E484F" points="18.37,53.65 16.631,67.835 14.774,67.835 16.521,53.65 	"/>
	<polygon fill="#3E484F" points="31.288,59.922 26.198,68.667 24.602,63.56 21.771,68.667 18.898,59.922 20.855,59.922 
		22.25,64.753 25.072,59.705 26.584,64.753 29.179,59.922 	"/>
	<path fill="#3E484F" d="M40.326,59.922l-0.975,7.913h-1.856l0.11-0.856c-0.795,0.693-1.619,1.042-2.47,1.042
		c-1.047,0-1.9-0.356-2.562-1.066c-0.66-0.712-0.991-1.634-0.991-2.764c0-1.306,0.379-2.374,1.134-3.209
		c0.767-0.835,1.75-1.251,2.948-1.251c0.566,0,1.046,0.092,1.444,0.276c0.404,0.185,0.815,0.504,1.235,0.957l0.125-1.042H40.326z
		 M38.066,63.652c0-0.698-0.201-1.268-0.605-1.705c-0.403-0.441-0.923-0.663-1.563-0.663c-0.694,0-1.277,0.272-1.747,0.814
		c-0.47,0.55-0.705,1.222-0.705,2.016c0,0.694,0.195,1.265,0.588,1.706c0.391,0.442,0.896,0.663,1.512,0.663
		c0.683,0,1.273-0.276,1.771-0.831C37.816,65.085,38.066,64.42,38.066,63.652"/>
	<polygon fill="#3E484F" points="50.707,59.922 43.542,72.364 41.427,72.364 44.609,66.853 41.779,59.922 43.761,59.922 
		45.718,64.979 48.582,59.922 	"/>
	<path fill="#3E484F" d="M56.873,60.797l-1.05,1.049c-0.494-0.441-0.95-0.662-1.369-0.662c-0.285,0-0.523,0.079-0.71,0.237
		c-0.188,0.161-0.281,0.357-0.281,0.594c0,0.229,0.079,0.423,0.235,0.58c0.157,0.161,0.484,0.38,0.983,0.654
		c0.71,0.396,1.187,0.762,1.428,1.093c0.256,0.323,0.385,0.747,0.385,1.268c0,0.75-0.259,1.352-0.781,1.806
		c-0.531,0.448-1.223,0.672-2.074,0.672c-1.159,0-2.12-0.522-2.88-1.57l1.217-0.848c0.498,0.598,1.031,0.898,1.595,0.898
		c0.32,0,0.577-0.085,0.769-0.253c0.193-0.168,0.29-0.387,0.29-0.655c0-0.234-0.081-0.425-0.244-0.57
		c-0.077-0.073-0.215-0.174-0.411-0.303c-0.196-0.129-0.462-0.283-0.798-0.463c-0.594-0.33-1.005-0.651-1.234-0.966
		c-0.23-0.329-0.345-0.732-0.345-1.209c0-0.716,0.264-1.311,0.79-1.78c0.526-0.472,1.195-0.705,2.007-0.705
		C55.291,59.664,56.116,60.041,56.873,60.797"/>
	<polygon fill="#3E484F" points="61.056,63.015 60.872,64.485 57.251,64.485 57.419,63.015 	"/>
	<path fill="#3E484F" d="M70.497,63.805c0,1.208-0.42,2.225-1.26,3.048c-0.835,0.822-1.865,1.233-3.091,1.233
		c-1.282,0-2.33-0.388-3.142-1.167c-0.817-0.783-1.226-1.775-1.226-2.973c0-1.226,0.423-2.246,1.269-3.059
		c0.851-0.815,1.915-1.225,3.191-1.225c1.253,0,2.276,0.386,3.065,1.159C70.099,61.583,70.497,62.578,70.497,63.805 M68.624,63.711
		c0-0.762-0.222-1.363-0.664-1.807c-0.442-0.458-1.021-0.688-1.738-0.688c-0.744,0-1.361,0.254-1.847,0.764
		c-0.488,0.515-0.731,1.162-0.731,1.94c0,0.784,0.229,1.414,0.688,1.89c0.459,0.487,1.052,0.731,1.781,0.731
		c0.728,0,1.327-0.266,1.797-0.798C68.386,65.217,68.624,64.541,68.624,63.711"/>
	<path fill="#3E484F" d="M74.932,59.922l-0.085,0.732c0.734-0.616,1.476-0.924,2.227-0.924c0.771,0,1.391,0.215,1.855,0.646
		c0.454,0.432,0.681,1.02,0.681,1.764c0,0.403-0.034,0.886-0.101,1.446l-0.529,4.249h-1.847l0.57-4.652
		c0.023-0.175,0.039-0.328,0.047-0.462c0.008-0.136,0.012-0.256,0.012-0.362c0-0.717-0.386-1.075-1.159-1.075
		c-0.476,0-0.885,0.146-1.227,0.438c-0.28,0.229-0.487,0.51-0.621,0.84c-0.073,0.168-0.135,0.374-0.185,0.617
		c-0.051,0.244-0.095,0.524-0.135,0.844l-0.47,3.813h-1.856l0.974-7.913H74.932z"/>
	<polygon fill="#3E484F" points="98.946,59.922 93.856,68.667 92.26,63.56 89.429,68.667 86.556,59.922 88.514,59.922 
		89.908,64.753 92.73,59.705 94.242,64.753 96.837,59.922 	"/>
	<path fill="#3E484F" d="M107.984,59.922l-0.974,7.913h-1.857l0.109-0.856c-0.795,0.693-1.618,1.042-2.469,1.042
		c-1.046,0-1.901-0.356-2.562-1.066c-0.661-0.712-0.991-1.634-0.991-2.764c0-1.306,0.377-2.374,1.134-3.209
		c0.766-0.835,1.75-1.251,2.947-1.251c0.566,0,1.047,0.092,1.445,0.276c0.403,0.185,0.815,0.504,1.234,0.957l0.126-1.042H107.984z
		 M105.725,63.652c0-0.698-0.202-1.268-0.605-1.705c-0.404-0.441-0.924-0.663-1.563-0.663c-0.693,0-1.276,0.272-1.747,0.814
		c-0.471,0.55-0.705,1.222-0.705,2.016c0,0.694,0.195,1.265,0.587,1.706c0.392,0.442,0.896,0.663,1.511,0.663
		c0.684,0,1.275-0.276,1.773-0.831C105.475,65.085,105.725,64.42,105.725,63.652"/>
	<path fill="#3E484F" d="M112.436,59.922l-0.084,0.682c0.626-0.594,1.26-0.891,1.898-0.891c0.559,0,1.068,0.203,1.528,0.613
		l-1.185,1.528c-0.341-0.291-0.682-0.438-1.024-0.438c-0.235,0-0.442,0.047-0.621,0.14s-0.335,0.238-0.467,0.436
		c-0.131,0.2-0.24,0.456-0.327,0.771c-0.088,0.313-0.155,0.688-0.206,1.125l-0.486,3.947h-1.857l0.975-7.913H112.436z"/>
	<path fill="#3E484F" d="M119.18,59.922l-0.084,0.682c0.628-0.594,1.26-0.891,1.898-0.891c0.56,0,1.07,0.203,1.529,0.613
		l-1.184,1.528c-0.342-0.291-0.683-0.438-1.025-0.438c-0.234,0-0.442,0.047-0.622,0.14c-0.179,0.093-0.334,0.238-0.466,0.436
		c-0.131,0.2-0.241,0.456-0.326,0.771c-0.088,0.313-0.156,0.688-0.206,1.125l-0.488,3.947h-1.856l0.975-7.913H119.18z"/>
	<path fill="#3E484F" d="M131.543,59.922l-0.974,7.913h-1.856l0.109-0.856c-0.794,0.693-1.618,1.042-2.469,1.042
		c-1.048,0-1.902-0.356-2.563-1.066c-0.66-0.712-0.99-1.634-0.99-2.764c0-1.306,0.378-2.374,1.134-3.209
		c0.767-0.835,1.75-1.251,2.948-1.251c0.566,0,1.047,0.092,1.446,0.276c0.403,0.185,0.815,0.504,1.235,0.957l0.126-1.042H131.543z
		 M129.284,63.652c0-0.698-0.2-1.268-0.603-1.705c-0.404-0.441-0.925-0.663-1.563-0.663c-0.695,0-1.277,0.272-1.747,0.814
		c-0.47,0.55-0.706,1.222-0.706,2.016c0,0.694,0.197,1.265,0.588,1.706c0.392,0.442,0.896,0.663,1.512,0.663
		c0.683,0,1.273-0.276,1.773-0.831C129.036,65.085,129.284,64.42,129.284,63.652"/>
	<path fill="#3E484F" d="M135.987,59.922l-0.084,0.732c0.733-0.616,1.478-0.924,2.228-0.924c0.772,0,1.391,0.215,1.856,0.646
		c0.452,0.432,0.679,1.02,0.679,1.764c0,0.403-0.032,0.886-0.101,1.446l-0.528,4.249h-1.848l0.57-4.652
		c0.023-0.175,0.038-0.328,0.046-0.462c0.008-0.136,0.014-0.256,0.014-0.362c0-0.717-0.388-1.075-1.16-1.075
		c-0.476,0-0.886,0.146-1.227,0.438c-0.279,0.229-0.487,0.51-0.62,0.84c-0.073,0.168-0.136,0.374-0.186,0.617
		c-0.05,0.244-0.096,0.524-0.136,0.844l-0.469,3.813h-1.857l0.976-7.913H135.987z"/>
	<polygon fill="#3E484F" points="145.379,61.646 144.614,67.835 142.757,67.835 143.522,61.646 142.473,61.646 142.683,59.922 
		143.732,59.922 144.184,56.252 146.042,56.252 145.589,59.922 147.302,59.922 147.092,61.646 	"/>
	<polygon fill="#3E484F" points="156.273,59.922 149.108,72.364 146.992,72.364 150.174,66.853 147.344,59.922 149.325,59.922 
		151.283,64.979 154.147,59.922 	"/>
	<path fill="#ED1C24" d="M178.434,1.667c-14.12,0-25.567,11.447-25.567,25.567c0,14.121,11.447,25.568,25.567,25.568
		s25.567-11.447,25.567-25.568C204.001,13.114,192.554,1.667,178.434,1.667 M174.686,12.907c0-2.07,1.678-3.749,3.748-3.749
		s3.747,1.678,3.747,3.749v10.611c0,2.07-1.677,3.749-3.747,3.749s-3.748-1.678-3.748-3.749V12.907z M178.434,45.274
		c-9.947,0-18.04-8.094-18.04-18.041c0-4.973,1.98-9.606,5.578-13.042c1.495-1.43,3.867-1.377,5.299,0.12
		c1.431,1.497,1.377,3.87-0.12,5.3c-2.102,2.009-3.26,4.717-3.26,7.623c0,5.814,4.73,10.543,10.543,10.543
		c5.813,0,10.542-4.729,10.542-10.543c0-2.923-1.168-5.64-3.287-7.651c-1.502-1.424-1.565-3.797-0.142-5.3
		c1.426-1.502,3.797-1.565,5.299-0.14c3.576,3.392,5.629,8.163,5.629,13.091C196.475,37.18,188.381,45.274,178.434,45.274"/>
	<polygon fill="#ED1C24" points="112.163,10.128 102.461,10.128 89.452,44.307 98.926,44.307 101.184,37.736 109.677,37.736 
		107.312,30.981 103.545,30.981 107.312,20.238 115.698,44.307 125.172,44.307 	"/>
</g>
</svg>
